<?xml version="1.0" standalone="no"?>
<!DOCTYPE svg PUBLIC "-//W3C//DTD SVG 20010904//EN"
 "http://www.w3.org/TR/2001/REC-SVG-20010904/DTD/svg10.dtd">
<svg version="1.0" xmlns="http://www.w3.org/2000/svg"
 width="200.000000pt" height="214.000000pt" viewBox="0 0 200.000000 214.000000"
 preserveAspectRatio="xMidYMid meet">

<g transform="translate(0.000000,214.000000) scale(0.100000,-0.100000)"
fill="#49688e" stroke="none">
<path d="M955 2038 c-21 -46 -173 -355 -337 -687 -164 -332 -298 -607 -298
-612 0 -5 22 7 49 27 81 58 234 130 327 155 l86 23 106 213 c58 117 109 213
112 213 3 0 54 -96 112 -214 l106 -214 54 -12 c114 -27 256 -93 361 -168 26
-19 47 -29 47 -24 0 5 -134 281 -298 613 -164 332 -316 641 -337 687 -22 45
-42 82 -45 82 -3 0 -23 -37 -45 -82z"/>
<path d="M958 1028 c-20 -51 -39 -103 -42 -115 -8 -24 -17 -28 -91 -38 -143
-20 -335 -107 -468 -215 -138 -111 -262 -286 -318 -447 -10 -31 -19 -58 -19
-61 0 -2 40 34 90 81 182 173 415 293 654 336 94 17 94 17 122 -44 49 -112 66
-206 62 -341 l-3 -124 25 50 c13 27 27 50 30 50 3 0 17 -23 30 -50 l25 -50 -3
124 c-4 135 13 229 63 342 l25 57 61 -7 c83 -10 216 -49 326 -98 126 -54 255
-142 363 -244 49 -48 90 -84 90 -82 0 18 -46 131 -80 197 -92 177 -259 339
-445 431 -97 49 -266 100 -327 100 -32 0 -27 -9 -88 153 -18 48 -36 87 -40 87
-4 0 -23 -42 -42 -92z m132 -253 c92 -9 204 -41 272 -77 58 -31 78 -56 36 -44
-47 13 -186 35 -264 41 l-80 7 -12 -50 c-6 -27 -16 -89 -22 -138 -7 -49 -15
-102 -20 -119 -7 -28 -8 -27 -9 14 -1 54 -30 237 -42 269 -9 24 -11 24 -87 17
-76 -7 -215 -29 -259 -41 -13 -4 -23 -2 -23 3 0 15 107 69 175 89 64 18 230
43 255 38 8 -1 44 -5 80 -9z"/>
<path d="M413 362 c-109 -62 -186 -119 -253 -187 l-55 -56 138 3 137 3 69 143
c39 78 65 142 58 142 -7 0 -49 -22 -94 -48z"/>
<path d="M1551 268 l69 -143 135 -3 c158 -3 157 -5 46 90 -94 82 -276 198
-310 198 -5 0 21 -64 60 -142z"/>
</g>
</svg>
